# Blender v3.1.2 OBJ File: 'ui-cursor.blend'
# www.blender.org
mtllib ui-cursor-with-uvs.mtl
o Plane.001
v -0.024170 0.000000 0.882019
v 0.009733 0.000000 0.870149
v -0.010781 0.000000 0.885803
v 0.001628 0.000000 0.881458
v -1.402668 0.000000 0.025815
v -1.385934 0.000000 0.000000
v -1.402668 0.000000 -0.025815
v -1.404103 0.000000 0.013021
v -1.406612 0.000000 0.009425
v -1.406253 0.000000 0.004276
v -1.398200 0.000000 -0.003913
v -1.398200 0.000000 0.003913
v -1.403599 0.000000 -0.000000
v -1.406612 0.000000 -0.009425
v -1.404103 0.000000 -0.013021
v -1.406253 0.000000 -0.004276
v 0.033471 0.000000 0.736195
v 0.040846 0.000000 0.785265
v 0.040721 0.000000 0.751011
v 0.043421 0.000000 0.768972
v -0.508751 0.000000 -0.022518
v -0.554139 0.000000 0.000000
v -0.508751 0.000000 0.022518
v -0.521256 0.000000 -0.011520
v -0.514601 0.000000 -0.008177
v -0.522289 0.000000 -0.003769
v -0.537816 0.000000 0.003305
v -0.537816 0.000000 -0.003305
v -0.529922 0.000000 0.000000
v -0.514601 0.000000 0.008177
v -0.521256 0.000000 0.011520
v -0.522289 0.000000 0.003769
v -1.402668 0.000000 0.025815
v -1.366952 0.000000 0.066313
v -1.393657 0.000000 0.040690
v -1.380584 0.000000 0.055513
v -0.024170 0.000000 -0.882019
v 0.009733 0.000000 -0.870149
v -0.010781 0.000000 -0.885803
v 0.001628 0.000000 -0.881458
v 0.033471 0.000000 -0.736195
v 0.040846 0.000000 -0.785265
v 0.040721 0.000000 -0.751011
v 0.043421 0.000000 -0.768972
v -1.402668 0.000000 -0.025815
v -1.366952 0.000000 -0.066313
v -1.393657 0.000000 -0.040690
v -1.380584 0.000000 -0.055513
v -0.024170 -0.070000 0.882019
v 0.009733 -0.070000 0.870149
v -0.010781 -0.070000 0.885803
v 0.001628 -0.070000 0.881458
v -1.402668 -0.070000 0.025815
v -1.385934 -0.070000 0.000000
v -1.402668 -0.070000 -0.025815
v -1.404103 -0.070000 0.013021
v -1.406612 -0.070000 0.009425
v -1.406253 -0.070000 0.004276
v -1.398200 -0.070000 -0.003913
v -1.398200 -0.070000 0.003913
v -1.403599 -0.070000 -0.000000
v -1.406612 -0.070000 -0.009425
v -1.404103 -0.070000 -0.013021
v -1.406253 -0.070000 -0.004276
v 0.033471 -0.070000 0.736195
v 0.040846 -0.070000 0.785265
v 0.040721 -0.070000 0.751011
v 0.043421 -0.070000 0.768972
v -0.508751 -0.070000 -0.022518
v -0.554139 -0.070000 0.000000
v -0.508751 -0.070000 0.022518
v -0.521256 -0.070000 -0.011520
v -0.514601 -0.070000 -0.008177
v -0.522289 -0.070000 -0.003769
v -0.537816 -0.070000 0.003305
v -0.537816 -0.070000 -0.003305
v -0.529922 -0.070000 0.000000
v -0.514601 -0.070000 0.008177
v -0.521256 -0.070000 0.011520
v -0.522289 -0.070000 0.003769
v -1.402668 -0.070000 0.025815
v -1.366952 -0.070000 0.066313
v -1.393657 -0.070000 0.040690
v -1.380584 -0.070000 0.055513
v -0.024170 -0.070000 -0.882019
v 0.009733 -0.070000 -0.870149
v -0.010781 -0.070000 -0.885803
v 0.001628 -0.070000 -0.881458
v 0.033471 -0.070000 -0.736195
v 0.040846 -0.070000 -0.785265
v 0.040721 -0.070000 -0.751011
v 0.043421 -0.070000 -0.768972
v -1.402668 -0.070000 -0.025815
v -1.366952 -0.070000 -0.066313
v -1.393657 -0.070000 -0.040690
v -1.380584 -0.070000 -0.055513
vt 0.500108 0.958255
vt 0.497937 0.951451
vt 0.512258 0.960734
vt 0.490714 0.961530
vt 0.492709 0.962922
vt 0.483617 0.960734
vt 0.495767 0.958255
vt 0.495565 0.962723
vt 0.500310 0.962723
vt 0.497937 0.961250
vt 0.503165 0.962922
vt 0.505160 0.961530
vt 0.504328 0.471799
vt 0.502473 0.468107
vt 0.510428 0.464862
vt 0.497937 0.476606
vt 0.500028 0.472372
vt 0.496104 0.480985
vt 0.499770 0.480985
vt 0.497937 0.490039
vt 0.491547 0.471799
vt 0.493401 0.468107
vt 0.485446 0.464862
vt 0.495847 0.472372
vt 0.062336 0.159991
vt 0.089557 0.164082
vt 0.008665 0.196056
vt 0.933538 0.159991
vt 0.906318 0.164082
vt 0.987209 0.196056
vt 0.492709 0.962922
vt 0.490714 0.961530
vt 0.483617 0.960734
vt 0.495565 0.962723
vt 0.495767 0.958255
vt 0.500108 0.958255
vt 0.497937 0.951451
vt 0.500310 0.962723
vt 0.505160 0.961530
vt 0.503165 0.962922
vt 0.512258 0.960734
vt 0.497937 0.961250
vt 0.502473 0.468107
vt 0.504328 0.471799
vt 0.510428 0.464862
vt 0.497937 0.476606
vt 0.499770 0.480985
vt 0.496104 0.480985
vt 0.497937 0.490039
vt 0.491547 0.471799
vt 0.493401 0.468107
vt 0.485446 0.464862
vt 0.500028 0.472372
vt 0.495847 0.472372
vt 0.475366 0.955735
vt 0.483617 0.960734
vt 0.483617 0.960734
vt 0.475366 0.955735
vt 0.467143 0.948483
vt 0.467143 0.948483
vt 0.461152 0.940922
vt 0.461152 0.940922
vt 0.008665 0.196056
vt 0.006566 0.188629
vt 0.006566 0.188629
vt 0.008976 0.181746
vt 0.008976 0.181746
vt 0.015250 0.177250
vt 0.015250 0.177250
vt 0.062336 0.159991
vt 0.071375 0.158563
vt 0.071375 0.158563
vt 0.081338 0.160060
vt 0.081338 0.160060
vt 0.089557 0.164082
vt 0.906318 0.164082
vt 0.914537 0.160060
vt 0.914537 0.160060
vt 0.924500 0.158563
vt 0.924500 0.158563
vt 0.933538 0.159991
vt 0.980625 0.177250
vt 0.980625 0.177250
vt 0.986898 0.181745
vt 0.986898 0.181745
vt 0.989308 0.188629
vt 0.989308 0.188629
vt 0.987209 0.196056
vt 0.534722 0.940922
vt 0.534722 0.940922
vt 0.528732 0.948483
vt 0.528732 0.948483
vt 0.520509 0.955735
vt 0.520509 0.955735
vt 0.512258 0.960734
vt 0.512258 0.960734
vn 0.0000 1.0000 0.0000
vn 0.0000 -1.0000 0.0000
vn -0.9722 0.0000 0.2339
vn -0.9722 0.0000 -0.2339
vn -1.0000 0.0000 0.0000
vn 0.9259 0.0000 0.3777
vn 0.9259 0.0000 -0.3777
vn 1.0000 0.0000 0.0000
vn 0.7963 0.0000 -0.6050
vn 0.0279 0.0000 -0.9996
vn -0.8553 0.0000 0.5181
vn -0.7500 0.0000 0.6614
vn -0.6210 0.0000 0.7838
vn -0.5192 0.0000 0.8547
vn -0.2720 0.0000 0.9623
vn 0.3304 0.0000 0.9438
vn 0.8128 0.0000 0.5825
vn 0.9389 0.0000 0.3442
vn 0.9877 0.0000 0.1561
vn 0.9889 0.0000 -0.1486
vn 0.8982 0.0000 -0.4395
vn 0.7963 0.0000 0.6050
vn 0.8982 0.0000 0.4395
vn 0.9889 0.0000 0.1486
vn 0.9877 0.0000 -0.1561
vn 0.9389 0.0000 -0.3442
vn 0.8128 0.0000 -0.5825
vn 0.3305 0.0000 -0.9438
vn -0.2720 0.0000 -0.9623
vn -0.5192 0.0000 -0.8547
vn -0.6210 0.0000 -0.7838
vn -0.7500 0.0000 -0.6614
vn -0.8553 0.0000 -0.5181
vn 0.0279 0.0000 0.9996
vn 0.0000 0.0000 1.0000
vn -0.1477 -0.9663 0.2110
vn 0.0376 0.0000 -0.9993
vn 0.3305 0.0000 0.9438
vn 0.3304 0.0000 -0.9438
usemtl None
s off
f 11/1/1 6/2/1 7/3/1
f 8/4/1 9/5/1 5/6/1
f 12/7/1 10/8/1 8/4/1
f 11/1/1 12/7/1 6/2/1
f 11/1/1 16/9/1 13/10/1
f 14/11/1 15/12/1 7/3/1
f 9/5/1 16/9/1 14/11/1
f 10/8/1 13/10/1 16/9/1
f 24/13/1 25/14/1 21/15/1
f 24/13/1 29/16/1 26/17/1
f 27/18/1 28/19/1 22/20/1
f 31/21/1 29/16/1 27/18/1
f 30/22/1 31/21/1 23/23/1
f 30/22/1 26/17/1 32/24/1
f 26/17/1 29/16/1 32/24/1
f 18/25/1 17/26/1 1/27/1
f 90/28/2 89/29/2 85/30/2
f 57/31/2 56/32/2 53/33/2
f 58/34/2 60/35/2 56/32/2
f 60/35/2 59/36/2 54/37/2
f 59/36/2 64/38/2 63/39/2
f 63/39/2 62/40/2 55/41/2
f 64/38/2 57/31/2 62/40/2
f 58/34/2 64/38/2 61/42/2
f 73/43/2 72/44/2 69/45/2
f 72/44/2 77/46/2 76/47/2
f 76/47/2 75/48/2 70/49/2
f 77/46/2 79/50/2 75/48/2
f 79/50/2 78/51/2 71/52/2
f 78/51/2 74/53/2 73/43/2
f 74/53/2 80/54/2 77/46/2
f 83/55/2 53/33/2 54/37/2
f 9/5/3 53/33/3 5/6/3
f 7/3/4 62/40/4 14/11/4
f 14/11/5 57/31/5 9/5/5
f 25/14/6 69/45/6 21/15/6
f 23/23/7 78/51/7 30/22/7
f 30/22/8 73/43/8 25/14/8
f 17/26/9 71/52/9 23/23/9
f 5/6/10 81/56/10 33/57/10
f 33/57/11 83/55/11 35/58/11
f 35/58/12 84/59/12 36/60/12
f 34/61/13 84/59/13 82/62/13
f 34/61/14 49/63/14 1/27/14
f 1/27/15 51/64/15 3/65/15
f 3/65/16 52/66/16 4/67/16
f 4/67/17 50/68/17 2/69/17
f 2/69/18 66/70/18 18/25/18
f 18/25/19 68/71/19 20/72/19
f 20/72/20 67/73/20 19/74/20
f 19/74/21 65/75/21 17/26/21
f 21/15/22 89/29/22 41/76/22
f 41/76/23 91/77/23 43/78/23
f 43/78/24 92/79/24 44/80/24
f 44/80/25 90/28/25 42/81/25
f 42/81/26 86/82/26 38/83/26
f 38/83/27 88/84/27 40/85/27
f 40/85/28 87/86/28 39/87/28
f 39/87/29 85/30/29 37/88/29
f 37/88/30 94/89/30 46/90/30
f 46/90/31 96/91/31 48/92/31
f 47/93/32 96/91/32 95/94/32
f 47/93/33 93/95/33 45/96/33
f 45/96/34 55/41/34 7/3/34
f 6/2/1 22/20/1 46/90/1
f 22/20/1 28/19/1 21/15/1
f 46/90/1 22/20/1 21/15/1
f 28/19/1 24/13/1 21/15/1
f 21/15/1 41/76/1 37/88/1
f 41/76/1 43/78/1 42/81/1
f 37/88/1 41/76/1 42/81/1
f 43/78/1 44/80/1 42/81/1
f 42/81/1 38/83/1 37/88/1
f 38/83/1 40/85/1 37/88/1
f 40/85/1 39/87/1 37/88/1
f 37/88/1 46/90/1 21/15/1
f 46/90/1 48/92/1 6/2/1
f 48/92/1 47/93/1 6/2/1
f 47/93/1 45/96/1 7/3/1
f 7/3/1 15/12/1 11/1/1
f 47/93/1 7/3/1 6/2/1
f 8/4/1 10/8/1 9/5/1
f 12/7/1 13/10/1 10/8/1
f 11/1/1 13/10/1 12/7/1
f 11/1/1 15/12/1 16/9/1
f 14/11/1 16/9/1 15/12/1
f 9/5/1 10/8/1 16/9/1
f 24/13/1 26/17/1 25/14/1
f 24/13/1 28/19/1 29/16/1
f 27/18/1 29/16/1 28/19/1
f 31/21/1 32/24/1 29/16/1
f 30/22/1 32/24/1 31/21/1
f 30/22/1 25/14/1 26/17/1
f 17/26/1 23/23/1 1/27/1
f 23/23/1 31/21/1 22/20/1
f 31/21/1 27/18/1 22/20/1
f 22/20/1 6/2/1 34/61/1
f 6/2/1 12/7/1 5/6/1
f 34/61/1 6/2/1 36/60/1
f 12/7/1 8/4/1 5/6/1
f 5/6/35 33/57/35 35/58/35
f 35/58/1 36/60/1 6/2/1
f 34/61/1 1/27/1 23/23/1
f 1/27/1 3/65/1 2/69/1
f 34/61/1 23/23/1 22/20/1
f 3/65/1 4/67/1 2/69/1
f 2/69/1 18/25/1 1/27/1
f 18/25/1 20/72/1 17/26/1
f 20/72/1 19/74/1 17/26/1
f 6/2/1 5/6/1 35/58/1
f 76/47/2 70/49/2 72/44/2
f 70/49/2 54/37/2 94/89/2
f 72/44/2 70/49/2 69/45/2
f 54/37/2 59/36/2 55/41/2
f 59/36/2 63/39/2 55/41/2
f 55/41/35 93/95/35 95/94/35
f 89/29/2 69/45/2 85/30/2
f 85/30/2 69/45/2 94/89/2
f 92/79/2 91/77/2 89/29/2
f 86/82/2 90/28/2 85/30/2
f 90/28/2 92/79/2 89/29/2
f 87/86/2 88/84/2 86/82/2
f 85/30/2 87/86/2 86/82/2
f 95/94/2 96/91/2 54/37/2
f 96/91/2 94/89/2 54/37/2
f 54/37/2 55/41/2 95/94/2
f 70/49/2 94/89/2 69/45/2
f 57/31/2 58/34/2 56/32/2
f 58/34/2 61/42/2 60/35/2
f 60/35/2 61/42/2 59/36/2
f 59/36/2 61/42/2 64/38/2
f 63/39/2 64/38/2 62/40/2
f 64/38/2 58/34/2 57/31/2
f 73/43/2 74/53/2 72/44/2
f 72/44/2 74/53/2 77/46/2
f 76/47/2 77/46/2 75/48/2
f 77/46/2 80/54/2 79/50/2
f 79/50/2 80/54/2 78/51/2
f 78/51/2 80/54/2 74/53/2
f 79/50/2 71/52/2 70/49/2
f 71/52/2 65/75/2 49/63/2
f 65/75/2 67/73/2 68/71/2
f 68/71/2 66/70/2 65/75/2
f 66/70/2 50/68/2 49/63/2
f 50/68/2 52/66/2 51/64/2
f 51/64/2 49/63/2 50/68/2
f 49/63/2 82/62/2 71/52/2
f 82/62/2 84/59/2 54/37/2
f 84/59/2 83/55/2 54/37/2
f 83/55/36 81/56/36 53/33/36
f 53/33/2 56/32/2 60/35/2
f 60/35/2 54/37/2 53/33/2
f 54/37/2 70/49/2 82/62/2
f 70/49/2 75/48/2 79/50/2
f 65/75/2 66/70/2 49/63/2
f 70/49/2 71/52/2 82/62/2
f 9/5/3 57/31/3 53/33/3
f 7/3/4 55/41/4 62/40/4
f 14/11/5 62/40/5 57/31/5
f 25/14/6 73/43/6 69/45/6
f 23/23/7 71/52/7 78/51/7
f 30/22/8 78/51/8 73/43/8
f 17/26/9 65/75/9 71/52/9
f 5/6/37 53/33/37 81/56/37
f 33/57/11 81/56/11 83/55/11
f 35/58/12 83/55/12 84/59/12
f 34/61/13 36/60/13 84/59/13
f 34/61/14 82/62/14 49/63/14
f 1/27/15 49/63/15 51/64/15
f 3/65/38 51/64/38 52/66/38
f 4/67/17 52/66/17 50/68/17
f 2/69/18 50/68/18 66/70/18
f 18/25/19 66/70/19 68/71/19
f 20/72/20 68/71/20 67/73/20
f 19/74/21 67/73/21 65/75/21
f 21/15/22 69/45/22 89/29/22
f 41/76/23 89/29/23 91/77/23
f 43/78/24 91/77/24 92/79/24
f 44/80/25 92/79/25 90/28/25
f 42/81/26 90/28/26 86/82/26
f 38/83/27 86/82/27 88/84/27
f 40/85/39 88/84/39 87/86/39
f 39/87/29 87/86/29 85/30/29
f 37/88/30 85/30/30 94/89/30
f 46/90/31 94/89/31 96/91/31
f 47/93/32 48/92/32 96/91/32
f 47/93/33 95/94/33 93/95/33
f 45/96/34 93/95/34 55/41/34
